<svg width="75" height="53" viewBox="0 0 75 53" fill="none" xmlns="http://www.w3.org/2000/svg">
<path d="M14 34.564C12.35 38.714 9.75 42.814 6.275 46.764C5.175 48.014 5.025 49.814 5.925 51.214C6.625 52.314 7.775 52.914 9.025 52.914C9.375 52.914 9.725 52.889 10.075 52.764C17.425 50.614 34.6 42.989 35.075 18.539C35.25 9.11398 28.35 1.01398 19.375 0.0889821C14.4 -0.411018 9.45 1.21398 5.775 4.51398C3.95741 6.16235 2.50468 8.17266 1.51012 10.4158C0.515571 12.6589 0.00118297 15.0853 0 17.539C0 25.789 5.85 33.014 14 34.564ZM59.275 0.0889821C54.325 -0.411018 49.375 1.21398 45.7 4.51398C43.8823 6.16225 42.4295 8.17254 41.4349 10.4157C40.4403 12.6588 39.926 15.0852 39.925 17.539C39.925 25.789 45.775 33.014 53.925 34.564C52.275 38.714 49.675 42.814 46.2 46.764C45.1 48.014 44.95 49.814 45.85 51.214C46.55 52.314 47.7 52.914 48.95 52.914C49.3 52.914 49.65 52.889 50 52.764C57.35 50.614 74.525 42.989 75 18.539V18.189C75 8.91398 68.175 1.01398 59.275 0.0889821Z" fill="#132577"/>
</svg>
